# xmcd
#
# Track frame offsets:
#	150
#	20375
#	46303
#	66834
#	83337
#	102992
#	124914
#	145504
#	166413
#	187853
#	206160
#	225257
#	243133
#	261983
#	279538
#	296456
#	313086
#	333288
#
# Disc length: 4690 seconds
#
# Revision: 0
# Processed by: cddbd v1.4PL0 Copyright (c) Steve Scherf et al.
# Submitted via: EasyCDDAExtractor 4.5.0.1
#
DISCID=f3125012
DTITLE=Various Artist - Sailing in Silence
DYEAR=2002
DGENRE=blues
TTITLE0=산책
TTITLE1=늦은후회
TTITLE2=지애(之愛)
TTITLE3=more than words
TTITLE4=그리고 사랑해
TTITLE5=잘못
TTITLE6=잘가요
TTITLE7=순수
TTITLE8=24시간의 신화
TTITLE9=To Be Continued
TTITLE10=別 (별)
TTITLE11=미안해
TTITLE12=사랑해 이말 밖엔
TTITLE13=하얀 그리움
TTITLE14=사랑해도 될까요?
TTITLE15=4월 이야기
TTITLE16=아로하
TTITLE17=A Better Day
EXTD=
EXTT0=
EXTT1=
EXTT2=
EXTT3=
EXTT4=
EXTT5=
EXTT6=
EXTT7=
EXTT8=
EXTT9=
EXTT10=
EXTT11=
EXTT12=
EXTT13=
EXTT14=
EXTT15=
EXTT16=
EXTT17=
PLAYORDER=
